<?xml version="1.0" standalone="no"?>
<!DOCTYPE svg PUBLIC "-//W3C//DTD SVG 20010904//EN"
  "http://www.w3.org/TR/2001/REC-SVG-20010904/DTD/svg10.dtd">
<svg version="1.0" xmlns="http://www.w3.org/2000/svg"
     width="80" height="80" viewBox="0 0 80 80"
     preserveAspectRatio="xMidYMid meet">
  <metadata>
    Created by potrace 1.15, written by Peter Selinger 2001-2017
  </metadata>
  <g transform="translate(0.000000,80.000000) scale(0.006250,-0.006250)"
     fill="#000000" stroke="none">
    <path d="M6110 12794 c-341 -22 -566 -47 -810 -90 -981 -172 -1916 -573 -2710
-1162 -500 -371 -962 -833 -1332 -1332 -651 -879 -1075 -1937 -1207 -3015 -39
-313 -45 -428 -45 -795 0 -437 23 -720 90 -1100 330 -1878 1474 -3507 3127
-4454 804 -461 1650 -725 2627 -822 246 -25 854 -25 1100 0 977 97 1823 361
2627 822 1161 665 2087 1679 2643 2894 267 585 451 1230 529 1865 37 296 46
446 46 795 0 428 -25 725 -91 1100 -304 1732 -1299 3256 -2759 4227 -894 595
-1895 946 -2985 1048 -153 15 -724 27 -850 19z"/>
  </g>
</svg>
